<svg xmlns="http://www.w3.org/2000/svg" viewBox="0 0 32 32" role="img" aria-label="Map">
  <rect width="32" height="32" rx="7" fill="#e8eaed"/>
  <path fill="#34a853" d="M4 6h11v11H4V6Z"/>
  <path fill="#fbbc04" d="M15 6h13v7H15V6Z"/>
  <path fill="#a8dab5" d="M4 17h11v9H4v-9Z"/>
  <path fill="#4285f4" d="M15 13h13v13H15V13Z"/>
  <path fill="#fff" d="M9 10.5h2v2H9v-2Zm8 4h2v2h-2v-2Z" opacity="0.9"/>
  <path
    fill="#ea4335"
    d="M16 7.5c-3.2 0-5.8 2.4-5.8 5.4 0 4.1 5.8 9.6 5.8 9.6s5.8-5.5 5.8-9.6c0-3-2.6-5.4-5.8-5.4Z"
  />
  <circle cx="16" cy="12.6" r="2.1" fill="#fff"/>
  <ellipse cx="16" cy="23.8" rx="3.2" ry="1" fill="#000" opacity="0.12"/>
</svg>
